<?xml version="1.0" encoding="utf-8"?>
<!-- Generator: Adobe Illustrator 25.2.3, SVG Export Plug-In . SVG Version: 6.00 Build 0)  -->
<svg version="1.1" id="Layer_1" xmlns="http://www.w3.org/2000/svg" xmlns:xlink="http://www.w3.org/1999/xlink" x="0px" y="0px"
	 viewBox="0 0 361.8 335.7" style="enable-background:new 0 0 361.8 335.7;" xml:space="preserve">
<style type="text/css">
	.st0{fill:#001ED4;}
	.st1{fill:none;stroke:#000000;stroke-width:0.3;}
	.st2{fill:#FFFFFF;}
</style>
<g>
	<g>
		<rect x="-1.5" y="-3.2" class="st0" width="364.8" height="338.8"/>
	</g>
	<line class="st1" x1="-1.5" y1="-57.2" x2="-1.5" y2="-21.2"/>
	<line class="st1" x1="-55.5" y1="-3.2" x2="-19.5" y2="-3.2"/>
	<line class="st1" x1="-55.5" y1="335.6" x2="-19.5" y2="335.6"/>
	<line class="st1" x1="-1.5" y1="389.6" x2="-1.5" y2="353.6"/>
	<line class="st1" x1="363.3" y1="-57.2" x2="363.3" y2="-21.2"/>
	<line class="st1" x1="417.3" y1="-3.2" x2="381.3" y2="-3.2"/>
	<line class="st1" x1="417.3" y1="335.6" x2="381.3" y2="335.6"/>
	<line class="st1" x1="363.3" y1="389.6" x2="363.3" y2="353.6"/>
</g>
<path class="st2" d="M182,26.2c14.6-0.2,29.2,4.5,41.1,12.9c13.8,9.5,24.1,24.2,28.5,40.4c3.9,14,2.9,29.6-0.9,43.6
	c-4.5,17.2-12.8,32.6-20.4,48.5c-4.1,8.7-8.5,18.2-10.2,27.7c-1.1,6.1-0.8,12.2,2.1,17.7c4,7.6,12.3,12.1,20.7,12.5
	c4.9,0,9.9-1.5,13.9-4.3c2.9-2,5.3-4.7,7.8-7.2c9.5-9.5,19-19,28.5-28.5c2-1.9,3.9-4.3,6.3-5.7c3.5-1.9,7.6-2.5,11.5-1.4
	c6.1,1.7,10.7,7.5,10.6,13.9c0.2,4.2-1.6,8.1-4.5,11.1c-11.5,11.5-23,23-34.5,34.5c-12.7,13.5-31.6,19.7-49.8,16
	c-10.5-2.2-20.7-7.4-28.1-15.2c-8.3-8.3-13.3-19.7-14.3-31.3c-1.3-12.3,1.9-25.1,6.3-36.5c6.5-17,16.2-32.9,22.6-50.2
	c2.9-7.8,5-16,5.4-24.3c0.4-10.9-3.4-21.9-10.6-30c-8.2-9.4-20.5-15-33-14.6c-18.3,0-35,13.1-40.2,30.5c-3.6,11.7-1.3,23.5,2.4,34.8
	c6.8,20.2,19.2,39.3,26,59.7c5,14.8,6.5,31.3,0.3,46c-5.9,14.4-18.5,25.2-33.3,29.7c-18.8,5.9-40.2,0.7-53.9-13.5
	c-12-12-24-24-36-36c-4.5-4.4-5.5-11.5-2.6-17.1c2.9-6,10-9.1,16.4-7.6c3.3,0.6,5.8,2.6,8.2,4.9c11.5,11.5,23,23,34.5,34.5
	c2.5,2.6,5.4,4.8,8.8,6.1c9.4,4,20.6,0.8,27.2-6.8c4.4-5.1,6.1-12,5.3-18.7c-1-9.2-4.8-18-8.6-26.4c-7.4-15.9-15.7-30.9-21-47.8
	c-3.8-12.3-6-25.9-4.3-38.8c1.9-15.6,9.2-30.5,20.3-41.6C143.8,33.9,162.9,25.9,182,26.2z"/>
<path class="st2" d="M32,209.5c3.2,0.6,5.9,2.2,8.2,4.5c12,12,24,24,36,36c12.2,12.2,29.6,19,46.8,18.2c17.1-0.8,33.9-8.8,45.1-21.9
	c4.5-5.5,8.8-11.2,13.2-16.8c8.9,9.9,17.5,22.7,29,29.3c13.3,8.1,29.4,11.3,44.7,8.3c12.3-2.3,23.8-8.4,32.7-17.2
	c11.8-11.9,23.7-23.6,35.5-35.5c3-3.2,6.6-5,11-5.1c7.7-0.3,14.7,6.1,14.9,13.9c0.3,4.6-1.2,8.4-4.5,11.6
	c-12.2,12.2-24.4,24.4-36.5,36.5c-18.6,18.3-45,28.1-71.1,26.2c-20.3-1.5-39.8-9.7-55.2-23c-20.7,18.2-49.4,26.7-76.6,22
	c-19-3.1-36.9-12.3-50.4-26c-11.9-12-24-24.1-36-36c-4.7-4.6-5.6-12-2.3-17.7C19.4,211.3,26,208.3,32,209.5z"/>
</svg>
